<?xml version="1.0" encoding="utf-8"?>
<!-- Generator: Adobe Illustrator 19.0.0, SVG Export Plug-In . SVG Version: 6.00 Build 0)  -->
<svg version="1.1" id="Isolation_Mode" xmlns="http://www.w3.org/2000/svg" xmlns:xlink="http://www.w3.org/1999/xlink" x="0px"
	 y="0px" viewBox="0 0 451 120.6" style="enable-background:new 0 0 451 120.6;" xml:space="preserve">
<style type="text/css">
	.st0{fill:#FFFFFF;}
	.st1{fill:#E63027;}
	.st2{fill:#FFD047;}
</style>
<g>
	<path class="st0" d="M224.9,64l-0.1,0.5c-0.3,1.7-0.1,2.7,1.8,2.7c1.1,0,2.3-0.7,2.6-2.2c0.3-1.6-0.3-2.2-2.5-3
		c-2.9-1.1-4.1-2.4-3.5-5.3c0.7-3.4,3.2-5.2,6.6-5.2c3.2,0,5.2,1.4,4.4,4.7l-0.1,0.5h-3.4c0.3-1.7,0-2.6-1.4-2.6
		c-1.6,0-2.2,1-2.4,2.1c-0.2,1.1-0.1,1.8,1.3,2.4l2.5,1.2c2.4,1.2,2.8,2.5,2.4,4.7c-0.8,3.7-3.4,5.4-7.3,5.4c-4,0-5.2-1.9-4.5-5.1
		l0.1-0.7H224.9z"/>
	<polygon class="st0" points="247.3,51.8 246.7,54.8 240.4,54.8 239.5,58.9 245.4,58.9 244.8,61.8 238.9,61.8 237.8,66.6 
		244.4,66.6 243.8,69.5 233.7,69.5 237.4,51.8 	"/>
	<path class="st0" d="M249.3,51.8h6.6c2.9,0,4.4,1.5,3.7,4.5c-0.5,2.3-1.8,3.9-3.9,4.3v0c2.3,0.3,2.4,1.7,1.7,5.4
		c-0.3,1.9-0.5,2.8,0.1,3.2l0,0.1h-3.9c-0.2-0.5-0.2-1.2,0-1.9l0.6-3.4c0.2-1.4-0.2-2.2-1.6-2.2h-1.9l-1.6,7.5h-3.6L249.3,51.8z
		 M251.2,59.6h1.5c1.7,0,2.8-0.7,3.2-2.6c0.3-1.6-0.3-2.4-2-2.4h-1.7L251.2,59.6z"/>
	<polygon class="st0" points="265.7,51.8 265.4,64.9 265.5,64.9 270.9,51.8 274.6,51.8 266.7,69.5 262.2,69.5 261.9,51.8 	"/>
	<polygon class="st0" points="272.3,69.5 276,51.8 279.6,51.8 275.8,69.5 	"/>
	<path class="st0" d="M288.5,57.8c0.5-2.6,0.2-3.7-1.4-3.7c-1.8,0-2.6,1.8-3.7,6.8c-1.1,5.3-0.6,6.3,0.9,6.3c1.3,0,2.3-0.7,3.2-4.5
		h3.6c-0.8,3.8-2.4,7.1-7.1,7.1c-5.3,0-5.2-3.8-4.1-9.2c1.1-5.4,2.6-9.2,8-9.2c5.1,0,4.7,3.7,4.1,6.3H288.5z"/>
	<polygon class="st0" points="305.4,51.8 304.7,54.8 298.4,54.8 297.5,58.9 303.5,58.9 302.9,61.8 296.9,61.8 295.9,66.6 
		302.5,66.6 301.8,69.5 291.7,69.5 295.5,51.8 	"/>
	<path class="st0" d="M307.6,64l-0.1,0.5c-0.3,1.7-0.1,2.7,1.8,2.7c1.1,0,2.3-0.7,2.6-2.2c0.3-1.6-0.3-2.2-2.5-3
		c-2.9-1.1-4.1-2.4-3.5-5.3c0.7-3.4,3.2-5.2,6.6-5.2c3.2,0,5.2,1.4,4.4,4.7l-0.1,0.5h-3.4c0.3-1.7,0-2.6-1.4-2.6
		c-1.6,0-2.2,1-2.4,2.1c-0.2,1.1-0.1,1.8,1.3,2.4l2.5,1.2c2.4,1.2,2.8,2.5,2.4,4.7c-0.8,3.7-3.4,5.4-7.3,5.4c-4,0-5.2-1.9-4.5-5.1
		l0.1-0.7H307.6z"/>
	<polygon class="st0" points="322.4,69.5 326.1,51.8 329.7,51.8 326.5,66.6 332.8,66.6 332.2,69.5 	"/>
	<path class="st0" d="M343.3,51.5c5.3,0,5.2,3.8,4.1,9.2c-1.1,5.4-2.6,9.2-8,9.2c-5.3,0-5.2-3.8-4.1-9.2
		C336.4,55.3,337.9,51.5,343.3,51.5 M339.9,67.2c2.1,0,2.8-1.8,3.8-6.5c1-4.7,1-6.5-1.1-6.5s-2.8,1.8-3.8,6.5
		C337.9,65.4,337.8,67.2,339.9,67.2"/>
	<path class="st0" d="M358,57.1c0.3-1.3,0-3-1.4-3c-1.7,0-2.8,1.8-3.7,6.2c-0.9,4.2-1.1,6.9,1,6.9c0.8,0,2.4-0.9,2.8-2.8l0.4-1.8
		h-2.3l0.6-2.6h5.8l-2,9.5h-2.6l0.3-1.6h0c-1.1,1.4-2.5,2-4.1,2c-4.4,0-4.5-3.3-3.2-9.4c1.3-5.9,3.3-9,7.8-9c3.9,0,5.1,2,4.3,5.6
		H358z"/>
	<polygon class="st0" points="361.4,69.5 365.2,51.8 368.8,51.8 365,69.5 	"/>
	<path class="st0" d="M371.7,64l-0.1,0.5c-0.3,1.7-0.1,2.7,1.8,2.7c1.1,0,2.3-0.7,2.6-2.2c0.3-1.6-0.3-2.2-2.5-3
		c-2.9-1.1-4.1-2.4-3.5-5.3c0.7-3.4,3.2-5.2,6.6-5.2c3.2,0,5.2,1.4,4.4,4.7l-0.1,0.5h-3.4c0.3-1.7,0-2.6-1.4-2.6
		c-1.6,0-2.2,1-2.4,2.1c-0.2,1.1-0.1,1.8,1.3,2.4l2.5,1.2c2.4,1.2,2.8,2.5,2.4,4.7c-0.8,3.7-3.4,5.4-7.3,5.4c-4,0-5.2-1.9-4.5-5.1
		l0.1-0.7H371.7z"/>
	<polygon class="st0" points="394.5,51.8 393.9,54.8 390.1,54.8 386.9,69.5 383.4,69.5 386.5,54.8 382.7,54.8 383.3,51.8 	"/>
	<polygon class="st0" points="392.5,69.5 396.2,51.8 399.8,51.8 396,69.5 	"/>
	<path class="st0" d="M408.3,71.7l-1.6-2.2c-0.3,0.1-0.7,0.2-1.1,0.3c-0.4,0-0.8,0.1-1.3,0.1c-5.3,0-5.2-3.8-4.1-9.2
		c1.1-5.4,2.6-9.2,8-9.2s5.2,3.8,4.1,9.2c-0.6,3-1.4,5.5-2.9,7.2l1.5,1.9L408.3,71.7z M404.8,67.2c2.1,0,2.8-1.8,3.8-6.5
		c1-4.7,1-6.5-1.1-6.5c-2.1,0-2.8,1.8-3.8,6.5C402.7,65.4,402.7,67.2,404.8,67.2"/>
	<path class="st0" d="M419.5,51.8l-2.6,12.3c-0.4,1.8-0.2,3.1,1.4,3.1c1.7,0,2.3-1.3,2.7-3.1l2.6-12.3h3.6l-2.6,12.3
		c-1,4.5-4,5.7-6.8,5.7c-2.9,0-5.4-1-4.4-5.7l2.6-12.3H419.5z"/>
	<polygon class="st0" points="439.3,51.8 438.7,54.8 432.4,54.8 431.5,58.9 437.4,58.9 436.8,61.8 430.9,61.8 429.9,66.6 
		436.4,66.6 435.8,69.5 425.7,69.5 429.5,51.8 	"/>
	<path class="st0" d="M441.6,64l-0.1,0.5c-0.3,1.7-0.1,2.7,1.8,2.7c1.1,0,2.3-0.7,2.6-2.2c0.3-1.6-0.3-2.2-2.5-3
		c-2.9-1.1-4.1-2.4-3.5-5.3c0.7-3.4,3.2-5.2,6.6-5.2c3.2,0,5.2,1.4,4.4,4.7l-0.1,0.5h-3.4c0.3-1.7,0-2.6-1.4-2.6
		c-1.6,0-2.2,1-2.4,2.1c-0.2,1.1-0.1,1.8,1.3,2.4l2.5,1.2c2.4,1.2,2.8,2.5,2.4,4.7c-0.8,3.7-3.4,5.4-7.3,5.4c-4,0-5.2-1.9-4.5-5.1
		l0.1-0.7H441.6z"/>
</g>
<g>
	<polygon class="st0" points="221,99.1 224.7,81.5 228.3,81.5 225.2,96.2 231.5,96.2 230.8,99.1 	"/>
	<path class="st0" d="M241.9,81.1c5.3,0,5.2,3.8,4.1,9.2c-1.1,5.4-2.6,9.2-8,9.2c-5.3,0-5.2-3.8-4.1-9.2
		C235.1,84.9,236.6,81.1,241.9,81.1 M238.6,96.8c2.1,0,2.8-1.8,3.8-6.5c1-4.7,1-6.5-1.1-6.5s-2.8,1.8-3.8,6.5
		C236.5,95,236.5,96.8,238.6,96.8"/>
	<path class="st0" d="M256.6,86.7c0.3-1.3,0-3-1.4-3c-1.7,0-2.8,1.8-3.7,6.2c-0.9,4.2-1.1,6.9,1,6.9c0.8,0,2.4-0.9,2.8-2.8l0.4-1.8
		h-2.3l0.6-2.6h5.8l-2,9.5H255l0.3-1.6h0c-1.1,1.4-2.5,2-4.1,2c-4.4,0-4.5-3.3-3.2-9.4c1.3-5.9,3.3-9,7.8-9c3.9,0,5.1,2,4.3,5.6
		H256.6z"/>
	<polygon class="st0" points="260.1,99.1 263.8,81.5 267.4,81.5 263.6,99.1 	"/>
	<path class="st0" d="M270.3,93.6l-0.1,0.5c-0.3,1.7-0.1,2.7,1.8,2.7c1.1,0,2.3-0.7,2.6-2.2c0.3-1.6-0.3-2.2-2.5-3
		c-2.9-1.1-4.1-2.4-3.5-5.3c0.7-3.4,3.2-5.2,6.6-5.2c3.2,0,5.2,1.4,4.4,4.7l-0.1,0.5H276c0.3-1.7,0-2.6-1.4-2.6c-1.6,0-2.2,1-2.4,2
		c-0.2,1.1-0.1,1.8,1.3,2.4l2.5,1.2c2.4,1.2,2.8,2.5,2.4,4.7c-0.8,3.7-3.4,5.4-7.3,5.4c-4,0-5.2-1.9-4.5-5.1l0.1-0.7H270.3z"/>
	<polygon class="st0" points="293.2,81.5 292.5,84.4 288.7,84.4 285.6,99.1 282,99.1 285.1,84.4 281.3,84.4 281.9,81.5 	"/>
	<polygon class="st0" points="291.1,99.1 294.9,81.5 298.4,81.5 294.7,99.1 	"/>
	<path class="st0" d="M307.3,87.4c0.5-2.6,0.2-3.7-1.4-3.7c-1.8,0-2.6,1.8-3.7,6.8c-1.1,5.3-0.6,6.3,0.9,6.3c1.3,0,2.3-0.7,3.2-4.5
		h3.6c-0.8,3.8-2.4,7.1-7.1,7.1c-5.3,0-5.2-3.8-4.1-9.2c1.1-5.4,2.6-9.2,8-9.2c5.1,0,4.7,3.7,4.1,6.3H307.3z"/>
	<path class="st0" d="M320.5,93.6l-0.1,0.5c-0.3,1.7-0.1,2.7,1.8,2.7c1.1,0,2.3-0.7,2.6-2.2c0.3-1.6-0.3-2.2-2.5-3
		c-2.9-1.1-4.1-2.4-3.5-5.3c0.7-3.4,3.2-5.2,6.6-5.2c3.2,0,5.2,1.4,4.4,4.7l-0.1,0.5h-3.4c0.3-1.7,0-2.6-1.4-2.6c-1.6,0-2.2,1-2.4,2
		c-0.2,1.1-0.1,1.8,1.3,2.4l2.5,1.2c2.4,1.2,2.8,2.5,2.4,4.7c-0.8,3.7-3.4,5.4-7.3,5.4c-4,0-5.2-1.9-4.5-5.1l0.1-0.7H320.5z"/>
	<polygon class="st0" points="342.9,81.5 342.3,84.4 336,84.4 335.1,88.5 341.1,88.5 340.4,91.5 334.5,91.5 333.5,96.2 340,96.2 
		339.4,99.1 329.3,99.1 333.1,81.5 	"/>
	<path class="st0" d="M345,81.5h6.6c2.9,0,4.4,1.5,3.7,4.5c-0.5,2.3-1.8,3.9-3.9,4.3v0c2.3,0.3,2.4,1.7,1.7,5.4
		c-0.3,1.9-0.5,2.8,0.1,3.2l0,0.1h-3.9c-0.2-0.5-0.2-1.2,0-1.9l0.6-3.4c0.2-1.4-0.2-2.2-1.6-2.2h-1.9l-1.6,7.5h-3.6L345,81.5z
		 M346.9,89.2h1.5c1.7,0,2.8-0.7,3.2-2.6c0.3-1.6-0.3-2.4-2-2.4h-1.7L346.9,89.2z"/>
	<polygon class="st0" points="361.3,81.5 361.1,94.5 361.1,94.5 366.5,81.5 370.2,81.5 362.4,99.1 357.8,99.1 357.5,81.5 	"/>
	<polygon class="st0" points="367.9,99.1 371.7,81.5 375.2,81.5 371.5,99.1 	"/>
	<path class="st0" d="M384.2,87.4c0.5-2.6,0.2-3.7-1.4-3.7c-1.8,0-2.6,1.8-3.7,6.8c-1.1,5.3-0.6,6.3,0.9,6.3c1.3,0,2.3-0.7,3.2-4.5
		h3.6c-0.8,3.8-2.4,7.1-7.1,7.1c-5.3,0-5.2-3.8-4.1-9.2c1.1-5.4,2.6-9.2,8-9.2c5.1,0,4.7,3.7,4.1,6.3H384.2z"/>
	<polygon class="st0" points="401,81.5 400.4,84.4 394.1,84.4 393.2,88.5 399.1,88.5 398.5,91.5 392.6,91.5 391.6,96.2 398.1,96.2 
		397.5,99.1 387.4,99.1 391.1,81.5 	"/>
	<path class="st0" d="M403.3,93.6l-0.1,0.5c-0.3,1.7-0.1,2.7,1.8,2.7c1.1,0,2.3-0.7,2.6-2.2c0.3-1.6-0.3-2.2-2.5-3
		c-2.9-1.1-4.1-2.4-3.5-5.3c0.7-3.4,3.2-5.2,6.6-5.2c3.2,0,5.2,1.4,4.4,4.7l-0.1,0.5H409c0.3-1.7,0-2.6-1.4-2.6c-1.6,0-2.2,1-2.4,2
		c-0.2,1.1-0.1,1.8,1.3,2.4l2.5,1.2c2.4,1.2,2.8,2.5,2.4,4.7c-0.8,3.7-3.4,5.4-7.3,5.4c-4,0-5.2-1.9-4.5-5.1l0.1-0.7H403.3z"/>
</g>
<path class="st1" d="M132.6,30.3l-6.3,21.3c-0.1,0.2-0.3,0.4-0.5,0.4h-61c-0.2,0-0.4-0.1-0.5-0.4l-6.3-21.3H0v90.3h190.5V30.3H132.6
	z"/>
<path class="st2" d="M64.8,52h61c0.2,0,0.4-0.1,0.5-0.4l6.3-21.3l1.3-4.4l7.4-25.3c0.1-0.2,0-0.5-0.3-0.6c-0.2-0.1-0.5-0.1-0.6,0.1
	l-19.1,24.5V13.5c0-0.2-0.1-0.3-0.3-0.4c-0.2-0.1-0.3-0.1-0.5,0l-13.7,8.1l-11.2-11c-0.2-0.2-0.5-0.2-0.7,0l-11.2,11l-13.7-8.1
	c-0.2-0.1-0.3-0.1-0.5,0c-0.2,0.1-0.3,0.3-0.3,0.4v11.2L50.2,0.2c-0.1-0.2-0.4-0.2-0.6-0.1c-0.2,0.1-0.3,0.4-0.3,0.6l7.4,25.3
	l1.3,4.4l6.3,21.3C64.4,51.9,64.6,52,64.8,52"/>
<path class="st0" d="M27.9,100l6.7-31.5h12c5.6,0,6.4,4.5,5.4,8.9c-0.6,2.7-1.9,5.7-4.5,7.5c-2.1,1.4-4.5,1.9-6.7,1.9h-4.2L33.8,100
	H27.9z M37.5,82.2h3.1c2.6,0,4.5-1.1,5.3-4.9c0.8-3.6-0.5-4.2-3.9-4.2h-2.7L37.5,82.2z"/>
<path class="st0" d="M60.2,86.5L57.3,100h-5.9l6.7-31.5h11.1c5.1,0,8.6,1.8,7.3,7.6c-0.7,3.4-2.4,7.1-6.4,7.6l0,0.1
	c3.4,0.5,4,2.7,3.3,5.7l-0.3,1.3c-0.6,2.6-1.6,7.9-0.6,8.6l-0.1,0.6H66c-0.2-1.6,0.3-4.5,0.8-6.6l0.3-1.4c0.4-1.9,1-4.6-0.9-5.2
	c-1.3-0.4-2.7-0.4-4.1-0.4h-0.8H60.2z M61.2,81.9h4.6c2-0.1,3.7-1.4,4.4-4.5c0.8-3.5-0.6-4.1-2.8-4.2H63L61.2,81.9z"/>
<polygon class="st0" points="77.5,100 84.2,68.5 90.1,68.5 83.4,100 "/>
<path class="st0" d="M110.2,68.5h5.9l-6.7,31.5h-6.1l-2.2-11.2c-0.8-3.7-1.2-7.6-1.5-12.5h-0.1c-0.3,2.6-0.8,5.8-1.3,9
	c-0.5,3.1-1,6.3-1.6,8.8l-1.3,5.9h-5.9l6.7-31.5h6.1l2.1,11.5c0.7,3.7,1.2,7.4,1.5,12.5h0.1c0.4-2.9,0.8-5.9,1.3-8.9
	c0.5-3,1-6,1.6-8.9L110.2,68.5z"/>
<path class="st0" d="M136.4,88.8c-0.2,0.6-0.3,1.2-0.5,1.8c-1.5,5.8-4.4,10.2-10.9,10.2c-9.7,0-9-6.1-7.2-14.5l1-4.5
	c2-8,3.9-14,13.3-14c5.2,0.1,7.6,2.8,6.9,8.1c-0.1,0.7-0.2,1.3-0.3,2l-0.1,0.4h-5.8c0.2-2,1.2-5.8-1.7-5.8c-4,0-5.1,4.1-5.7,6.8
	l-2.1,9.9c-0.6,2.6-1.2,6.8,2.8,6.8c3.2,0,4-5.2,4.5-7.2H136.4z"/>
<polygon class="st0" points="138.9,100 145.6,68.5 162.1,68.5 161.1,73.2 150.5,73.2 148.8,81.1 158.6,81.1 157.6,85.7 147.8,85.7 
	145.7,95.4 156.4,95.4 155.4,100 "/>
</svg>
